<svg width="16" height="17" fill="none" xmlns="http://www.w3.org/2000/svg">
    <path d="M13.962 0H3.397C2.273 0 1.359.894 1.359 1.992v1.229H0v1.328h1.359v3.32H0v1.328h1.359v3.32H0v1.329h1.359v1.162c0 1.098.914 1.992 2.038 1.992h10.565C15.086 17 16 16.106 16 15.008V1.992C16 .894 15.086 0 13.962 0zm.68 15.008a.673.673 0 0 1-.68.664H3.397a.673.673 0 0 1-.68-.664v-1.162h.306v-.002l.034.002c.376 0 .68-.298.68-.664a.672.672 0 0 0-.68-.664l-.034.001v-.001h-.305v-3.32h.305v-.002l.034.001c.376 0 .68-.297.68-.664a.672.672 0 0 0-.68-.664l-.034.002v-.002h-.305V4.55h.305v-.002l.034.002c.376 0 .68-.297.68-.664a.672.672 0 0 0-.68-.664l-.034.001v-.001h-.305V1.992c0-.366.304-.664.679-.664h10.565c.374 0 .68.298.68.664v13.016zm-3.84-6.683c.339-.405.542-.922.542-1.485 0-1.3-1.082-2.358-2.412-2.358-1.33 0-2.412 1.058-2.412 2.358 0 .574.212 1.101.562 1.51-1.32.67-2.224 2.019-2.224 3.57h1.359c0-1.483 1.234-2.69 2.751-2.69s2.752 1.207 2.752 2.69h1.359c0-1.571-.928-2.935-2.276-3.595zm-1.87-2.514c.58 0 1.053.461 1.053 1.029 0 .567-.473 1.03-1.053 1.03s-1.053-.463-1.053-1.03c0-.568.472-1.03 1.053-1.03z" fill="#0059FB"/>
</svg>
