<svg width="14" height="14" fill="none" xmlns="http://www.w3.org/2000/svg">
    <path d="M7 1.166a6.978 6.978 0 0 0-4.948 2.049l-.002.001-.001.002A6.978 6.978 0 0 0 0 8.16v.012a6.972 6.972 0 0 0 1.6 4.449c.111.134.276.211.45.211h9.9a.584.584 0 0 0 .45-.211A7 7 0 0 0 7 1.166zm4.667 10.5H2.333a5.796 5.796 0 0 1-1.137-2.917h1.72a.583.583 0 1 0 0-1.166h-1.72a5.806 5.806 0 0 1 1.287-3.109l.392.392a.583.583 0 0 0 .825-.825l-.392-.392a5.806 5.806 0 0 1 3.109-1.287v1.72a.583.583 0 1 0 1.166 0v-1.72a5.806 5.806 0 0 1 3.108 1.287l-.391.392a.583.583 0 1 0 .825.825l.391-.392a5.806 5.806 0 0 1 1.288 3.109h-1.72a.583.583 0 1 0 0 1.166h1.72a5.796 5.796 0 0 1-1.137 2.917z" fill="#0059FB"/>
    <path d="m7.1 9.333 1.65-3.3-3.299 1.65 1.65 1.65z" fill="#0059FB"/>
</svg>
