<svg width="13" height="16" fill="none" xmlns="http://www.w3.org/2000/svg">
    <path d="M12.658 3.704 9.048.32A1.2 1.2 0 0 0 8.225 0H1.167C.523 0 0 .49 0 1.094v13.812C0 15.51.523 16 1.167 16h10.666c.644 0 1.167-.49 1.167-1.094V4.478c0-.292-.121-.567-.342-.774zm-1.365.046H9.167C9.075 3.75 9 3.68 9 3.594V1.6l2.293 2.15zm.54 11.313H1.167c-.092 0-.167-.07-.167-.157V1.094c0-.086.075-.157.167-.157H8v2.657c0 .603.523 1.094 1.167 1.094H12v10.218c0 .086-.075.156-.167.156z" fill="#0059FB"/>
    <path d="M6.99 7.075h3.125c.27 0 .49-.206.49-.461s-.22-.462-.49-.462H6.99c-.27 0-.49.207-.49.462s.22.461.49.461zM6.99 10.153h3.125c.27 0 .49-.206.49-.461s-.22-.462-.49-.462H6.99c-.27 0-.49.207-.49.462s.22.461.49.461zM10.117 12.309H6.989a.476.476 0 0 0-.489.461c0 .255.219.462.489.462h3.128c.27 0 .488-.207.488-.462a.476.476 0 0 0-.489-.461zM4.634 5.356l-1.133.991-.267-.234a.543.543 0 0 0-.696 0 .393.393 0 0 0 0 .608l.615.537a.528.528 0 0 0 .348.126.528.528 0 0 0 .347-.126L5.33 5.964a.392.392 0 0 0 0-.608.543.543 0 0 0-.696 0zM4.634 8.743l-1.133.99-.267-.233a.543.543 0 0 0-.696 0 .393.393 0 0 0 0 .608l.615.537a.528.528 0 0 0 .348.126.528.528 0 0 0 .347-.126L5.33 9.351a.393.393 0 0 0 0-.608.543.543 0 0 0-.696 0zM4.634 11.835l-1.133 1.133-.267-.267a.492.492 0 0 0-.696.694l.615.614a.49.49 0 0 0 .695 0l1.482-1.48a.49.49 0 1 0-.696-.694z" fill="#0059FB"/>
</svg>
