<svg width="13" height="18" fill="none" xmlns="http://www.w3.org/2000/svg">
    <path d="M9.236 12.492H3.762a.684.684 0 1 0 0 1.368h5.474a.684.684 0 1 0 0-1.368z" fill="#0059FB"/>
    <path d="M12.316 1.682H8.553V.97A.684.684 0 0 0 8.15.346a4.11 4.11 0 0 0-3.302 0 .684.684 0 0 0-.402.623v.713H.684A.684.684 0 0 0 0 2.367v14.465c0 .377.306.684.684.684h11.632a.684.684 0 0 0 .684-.684V2.367a.684.684 0 0 0-.684-.685zm-6.5-.228c.439-.11.929-.11 1.368 0v1.91H5.816v-1.91zm5.816 14.694H1.368V3.05h3.08v.997c0 .378.306.684.684.684h2.736a.684.684 0 0 0 .685-.684v-.997h3.079v13.097z" fill="#0059FB"/>
    <path d="M3.078 7.702c0 .378.306.684.684.684h5.474a.684.684 0 1 0 0-1.368H3.762a.684.684 0 0 0-.684.684zM9.236 9.754H3.762a.684.684 0 1 0 0 1.368h5.474a.684.684 0 1 0 0-1.368z" fill="#0059FB"/>
</svg>
