<svg width="16" height="15" fill="none" xmlns="http://www.w3.org/2000/svg">
    <path d="M13.741 8.977a.45.45 0 0 0-.646 0 .474.474 0 0 0 0 .66l.922.941a.45.45 0 0 0 .646 0 .474.474 0 0 0 0-.66l-.922-.941zM13.418 5.112a.45.45 0 0 0 .323-.137l.922-.942a.474.474 0 0 0 0-.66.45.45 0 0 0-.646 0l-.922.942a.474.474 0 0 0 0 .66.45.45 0 0 0 .323.137zM15.144 6.508H13.84a.462.462 0 0 0-.457.467c0 .257.204.466.457.466h1.304a.462.462 0 0 0 .457-.466.462.462 0 0 0-.457-.467zM12.164.337a.449.449 0 0 0-.462.01L6.468 3.62H4.145a1.764 1.764 0 0 0-1.33.498c-.136.13-.25.28-.34.443h-1.15C.595 4.56 0 5.168 0 5.914v2.123C0 8.783.594 9.39 1.325 9.39h1.148c.184.336.461.615.8.8L1.68 13.005a.476.476 0 0 0 .172.64l2.016 1.156a.455.455 0 0 0 .62-.174l2.274-4.022 4.945 3.002a.449.449 0 0 0 .46.005.469.469 0 0 0 .23-.406V.744a.469.469 0 0 0-.233-.407zM1.325 8.457a.416.416 0 0 1-.411-.42V5.914c0-.231.184-.42.411-.42h.903V8.457h-.903zm1.817-2.942c0-.273.109-.534.298-.717a.87.87 0 0 1 .664-.245H6.14v4.943H4.147a1.075 1.075 0 0 1-1.005-1.06v-2.92zm.78 8.247-1.22-.698 1.463-2.586a.479.479 0 0 0 .023-.048h1.618l-1.884 3.332zm7.562-1.376-4.43-2.688v-5.35l4.43-2.77v10.808z" fill="#0059FB"/>
</svg>
