<svg width="16" height="12" fill="none" xmlns="http://www.w3.org/2000/svg">
    <path d="M13.6 3.297H2.4c-.773 0-1.4.514-1.4 1.148v5.742c0 .635.627 1.149 1.4 1.149h11.2c.773 0 1.4-.514 1.4-1.149V4.445c0-.634-.627-1.148-1.4-1.148z" stroke="#0059FB" stroke-width="1.2" stroke-linecap="round" stroke-linejoin="round"/>
    <path d="M10.8 11.336V2.148c0-.304-.148-.596-.41-.812A1.57 1.57 0 0 0 9.4 1H6.6a1.57 1.57 0 0 0-.99.336c-.263.216-.41.508-.41.812v9.188" stroke="#0059FB" stroke-width="1.2" stroke-linecap="round" stroke-linejoin="round"/>
</svg>
