<svg width="16" height="14" fill="none" xmlns="http://www.w3.org/2000/svg">
    <path d="M11 12.621v-1.29c0-.685-.263-1.342-.732-1.827A2.46 2.46 0 0 0 8.5 8.748h-5a2.46 2.46 0 0 0-1.768.756A2.626 2.626 0 0 0 1 11.33v1.291M6 6.165c1.38 0 2.5-1.157 2.5-2.583C8.5 2.156 7.38 1 6 1S3.5 2.156 3.5 3.582 4.62 6.165 6 6.165zM14.75 12.62v-1.291c0-.573-.185-1.129-.524-1.58a2.496 2.496 0 0 0-1.351-.919M10.375 1.084a2.496 2.496 0 0 1 1.355.918c.34.453.525 1.01.525 1.584 0 .573-.185 1.13-.525 1.583-.34.453-.817.776-1.355.918" stroke="#0059FB" stroke-width="1.2" stroke-linecap="round" stroke-linejoin="round"/>
</svg>
