<svg width="17" height="17" fill="none" xmlns="http://www.w3.org/2000/svg">
    <path d="M14.557 10.198c.311-.392.46-.813.441-1.246a1.9 1.9 0 0 0-.412-1.079c.206-.508.285-1.308-.404-1.929-.505-.455-1.362-.659-2.55-.602-.835.038-1.534.191-1.562.198h-.003c-.16.028-.327.062-.499.1-.013-.2.022-.7.397-1.823.445-1.336.42-2.358-.082-3.042C9.355.056 8.513 0 8.266 0a.802.802 0 0 0-.613.276c-.352.405-.31 1.151-.266 1.496-.42 1.11-1.595 3.833-2.589 4.59-.019.012-.035.028-.05.043a3.367 3.367 0 0 0-.623.922c-.187-.1-.4-.156-.629-.156H1.56c-.73 0-1.32.586-1.32 1.305v5.097c0 .721.593 1.305 1.32 1.305h1.937c.283 0 .547-.088.763-.239l.746.088c.114.016 2.147.27 4.233.23.378.027.733.043 1.064.043.568 0 1.064-.044 1.476-.132.972-.204 1.636-.611 1.972-1.21a1.9 1.9 0 0 0 .216-1.202c.632-.564.743-1.189.721-1.628a2.098 2.098 0 0 0-.13-.63zM1.559 14.03a.461.461 0 0 1-.463-.458v-5.1c0-.255.21-.459.463-.459h1.937c.258 0 .464.207.464.458v5.098c0 .254-.21.458-.464.458H1.56v.003zm12.185-4.2a.418.418 0 0 0-.057.51c0 .004.13.224.146.525.022.41-.178.774-.597 1.085a.424.424 0 0 0-.146.483c0 .003.136.417-.086.81-.213.376-.686.646-1.403.796-.575.123-1.357.144-2.315.07H9.24c-2.042.043-4.106-.22-4.128-.224H5.11l-.321-.037c.019-.088.028-.182.028-.276v-5.1c0-.135-.022-.267-.06-.39.057-.21.216-.677.59-1.075C6.775 5.89 8.168 2.124 8.229 1.96a.393.393 0 0 0 .02-.21c-.055-.351-.036-.78.04-.91.169.004.623.05.896.424.324.442.311 1.233-.038 2.28-.534 1.597-.578 2.438-.156 2.808.21.185.49.194.692.122.194-.044.378-.081.553-.11l.041-.009c.975-.21 2.722-.339 3.328.207.515.464.15 1.08.108 1.145a.416.416 0 0 0 .077.546c.003.003.336.313.352.73.013.28-.12.565-.397.848z" fill="#0059FB"/>
</svg>
