<svg width="16" height="17" fill="none" xmlns="http://www.w3.org/2000/svg">
    <path d="M16 9.297c0-1.476-1.063-2.718-2.493-3.06v-.942C13.507 2.375 11.032 0 7.99 0c-3.04 0-5.515 2.375-5.515 5.295v.945C1.054 6.588 0 7.827 0 9.297c0 1.74 1.476 3.154 3.29 3.154h1.108a.51.51 0 0 0 .52-.498V6.641a.51.51 0 0 0-.52-.498h-.883v-.848c0-2.37 2.008-4.299 4.476-4.299 2.469 0 4.476 1.929 4.476 4.3v.847h-.865a.509.509 0 0 0-.52.498v5.312a.51.51 0 0 0 .52.498h.865v.754c0 .93-.789 1.687-1.76 1.687h-.617a1.627 1.627 0 0 0-1.536-1.046H7.446c-.913 0-1.628.7-1.628 1.594 0 .86.73 1.56 1.628 1.56h1.108c.74 0 1.351-.461 1.555-1.112h.599c1.543 0 2.799-1.204 2.799-2.683v-.848c1.43-.342 2.493-1.584 2.493-3.06zM3.879 11.455H3.29c-1.241 0-2.251-.968-2.251-2.158s1.01-2.158 2.251-2.158h.589v4.316zm4.675 4.549H7.446a.578.578 0 0 1-.589-.565c0-.392.296-.597.589-.597h1.108c.325 0 .589.253.589.564a.574.574 0 0 1-.589.598zm4.156-4.549h-.589V7.14h.589c1.241 0 2.251.968 2.251 2.158s-1.01 2.158-2.251 2.158z" fill="#0059FB"/>
</svg>
